<svg width="324" height="90" viewBox="0 0 324 90" fill="none" xmlns="http://www.w3.org/2000/svg">
<path d="M113.36 68.7H116.5C117.26 68.7 117.84 68.86 118.24 69.18C118.72 69.5667 118.96 70.0867 118.96 70.74C118.96 71.46 118.66 72.0133 118.06 72.4C118.473 72.5067 118.82 72.6933 119.1 72.96C119.54 73.3867 119.76 73.92 119.76 74.56C119.76 75.36 119.473 75.9867 118.9 76.44C118.407 76.8133 117.753 77 116.94 77H113.36V68.7ZM114.8 72.08H116.32C116.707 72.08 117.013 72 117.24 71.84C117.507 71.64 117.64 71.3533 117.64 70.98C117.64 70.6467 117.507 70.38 117.24 70.18C117.04 70.0467 116.653 69.98 116.08 69.98H114.8V72.08ZM114.8 75.72H116.58C117.193 75.72 117.627 75.6267 117.88 75.44C118.2 75.2 118.36 74.8933 118.36 74.52C118.36 74.12 118.22 73.8067 117.94 73.58C117.687 73.38 117.253 73.28 116.64 73.28H114.8V75.72ZM128.114 74.22L129.314 74.88C129.034 75.4133 128.694 75.86 128.294 76.22C127.534 76.9 126.614 77.24 125.534 77.24C124.414 77.24 123.447 76.88 122.634 76.16C121.834 75.4267 121.434 74.34 121.434 72.9C121.434 71.6333 121.794 70.5867 122.514 69.76C123.247 68.92 124.227 68.5 125.454 68.5C126.84 68.5 127.887 69.0067 128.594 70.02C129.154 70.82 129.414 71.86 129.374 73.14H122.914C122.927 73.98 123.187 74.66 123.694 75.18C124.2 75.7 124.82 75.96 125.554 75.96C126.207 75.96 126.774 75.76 127.254 75.36C127.627 75.04 127.914 74.66 128.114 74.22ZM123.014 71.94H127.894C127.774 71.2867 127.487 70.7667 127.034 70.38C126.594 69.98 126.067 69.78 125.454 69.78C124.854 69.78 124.32 69.9867 123.854 70.4C123.4 70.8 123.12 71.3133 123.014 71.94ZM137.023 70.02H134.423V77H132.983V70.02H130.383V68.7H137.023V70.02ZM144.5 74.22L145.7 74.88C145.42 75.4133 145.08 75.86 144.68 76.22C143.92 76.9 143 77.24 141.92 77.24C140.8 77.24 139.834 76.88 139.02 76.16C138.22 75.4267 137.82 74.34 137.82 72.9C137.82 71.6333 138.18 70.5867 138.9 69.76C139.634 68.92 140.614 68.5 141.84 68.5C143.227 68.5 144.274 69.0067 144.98 70.02C145.54 70.82 145.8 71.86 145.76 73.14H139.3C139.314 73.98 139.574 74.66 140.08 75.18C140.587 75.7 141.207 75.96 141.94 75.96C142.594 75.96 143.16 75.76 143.64 75.36C144.014 75.04 144.3 74.66 144.5 74.22ZM139.4 71.94H144.28C144.16 71.2867 143.874 70.7667 143.42 70.38C142.98 69.98 142.454 69.78 141.84 69.78C141.24 69.78 140.707 69.9867 140.24 70.4C139.787 70.8 139.507 71.3133 139.4 71.94ZM149.409 75.84V81.6H147.969V68.7H149.409V69.86C150.143 68.9533 151.089 68.5 152.249 68.5C153.489 68.5 154.469 68.94 155.189 69.82C155.923 70.6867 156.289 71.7133 156.289 72.9C156.289 74.1 155.929 75.1267 155.209 75.98C154.489 76.82 153.523 77.24 152.309 77.24C151.096 77.24 150.129 76.7733 149.409 75.84ZM152.109 75.96C152.923 75.96 153.576 75.6667 154.069 75.08C154.563 74.48 154.809 73.7533 154.809 72.9C154.809 71.94 154.536 71.18 153.989 70.62C153.443 70.06 152.809 69.78 152.089 69.78C151.369 69.78 150.729 70.06 150.169 70.62C149.609 71.18 149.329 71.9333 149.329 72.88C149.329 73.7467 149.583 74.48 150.089 75.08C150.609 75.6667 151.283 75.96 152.109 75.96ZM158.497 68.7H159.937V74.18L165.617 68.06V77H164.177V71.46L158.497 77.58V68.7ZM168.34 77V68.7H169.78V72.1H173.7V68.7H175.14V77H173.7V73.42H169.78V77H168.34ZM184.212 69.88V68.7H185.652V77H184.212V75.84C183.492 76.7733 182.546 77.24 181.372 77.24C180.252 77.24 179.299 76.8533 178.512 76.08C177.726 75.3067 177.332 74.2267 177.332 72.84C177.332 71.48 177.719 70.42 178.492 69.66C179.279 68.8867 180.239 68.5 181.372 68.5C182.572 68.5 183.519 68.96 184.212 69.88ZM181.532 69.78C180.772 69.78 180.126 70.0533 179.592 70.6C179.072 71.1333 178.812 71.88 178.812 72.84C178.812 73.76 179.052 74.5133 179.532 75.1C180.026 75.6733 180.692 75.96 181.532 75.96C182.372 75.96 183.039 75.66 183.532 75.06C184.039 74.46 184.292 73.7267 184.292 72.86C184.292 71.8733 184.012 71.1133 183.452 70.58C182.892 70.0467 182.252 69.78 181.532 69.78ZM189.82 75.84V81.6H188.38V68.7H189.82V69.86C190.553 68.9533 191.5 68.5 192.66 68.5C193.9 68.5 194.88 68.94 195.6 69.82C196.333 70.6867 196.7 71.7133 196.7 72.9C196.7 74.1 196.34 75.1267 195.62 75.98C194.9 76.82 193.933 77.24 192.72 77.24C191.506 77.24 190.54 76.7733 189.82 75.84ZM192.52 75.96C193.333 75.96 193.986 75.6667 194.48 75.08C194.973 74.48 195.22 73.7533 195.22 72.9C195.22 71.94 194.946 71.18 194.4 70.62C193.853 70.06 193.22 69.78 192.5 69.78C191.78 69.78 191.14 70.06 190.58 70.62C190.02 71.18 189.74 71.9333 189.74 72.88C189.74 73.7467 189.993 74.48 190.5 75.08C191.02 75.6667 191.693 75.96 192.52 75.96ZM198.907 77V68.7H200.347V72.1H204.267V68.7H205.707V77H204.267V73.42H200.347V77H198.907ZM214.779 69.88V68.7H216.219V77H214.779V75.84C214.059 76.7733 213.112 77.24 211.939 77.24C210.819 77.24 209.865 76.8533 209.079 76.08C208.292 75.3067 207.899 74.2267 207.899 72.84C207.899 71.48 208.285 70.42 209.059 69.66C209.845 68.8867 210.805 68.5 211.939 68.5C213.139 68.5 214.085 68.96 214.779 69.88ZM212.099 69.78C211.339 69.78 210.692 70.0533 210.159 70.6C209.639 71.1333 209.379 71.88 209.379 72.84C209.379 73.76 209.619 74.5133 210.099 75.1C210.592 75.6733 211.259 75.96 212.099 75.96C212.939 75.96 213.605 75.66 214.099 75.06C214.605 74.46 214.859 73.7267 214.859 72.86C214.859 71.8733 214.579 71.1133 214.019 70.58C213.459 70.0467 212.819 69.78 212.099 69.78ZM217.986 77L220.566 73.58C220.486 73.58 220.373 73.5667 220.226 73.54C220.093 73.5133 219.893 73.4467 219.626 73.34C219.359 73.2333 219.139 73.0933 218.966 72.92C218.526 72.5067 218.306 71.9533 218.306 71.26C218.306 70.4733 218.553 69.8533 219.046 69.4C219.539 68.9333 220.353 68.7 221.486 68.7H224.386V77H222.946V73.66H222.066L219.706 77H217.986ZM222.946 72.46V69.98H221.606C220.979 69.98 220.546 70.0533 220.306 70.2C219.959 70.4267 219.786 70.7667 219.786 71.22C219.786 71.6733 219.959 72.0067 220.306 72.22C220.559 72.38 220.986 72.46 221.586 72.46H222.946ZM231.778 68.7H233.218V72.1L236.578 68.7H238.338L234.738 72.4L238.778 77H236.898L233.658 73.36L233.218 73.78V77H231.778V68.7ZM246.71 68.7V77H245.27V70.02H242.31V73.76C242.31 74.84 242.097 75.64 241.67 76.16C241.19 76.7467 240.524 77.04 239.67 77.04C239.564 77.04 239.417 77.0267 239.23 77V75.68C239.364 75.7067 239.47 75.72 239.55 75.72C240.017 75.72 240.364 75.54 240.59 75.18C240.777 74.8867 240.87 74.4133 240.87 73.76V68.7H246.71ZM249.434 68.7H250.874V74.18L256.554 68.06V77H255.114V71.46L249.434 77.58V68.7ZM259.278 77V68.7H260.718V72.1H264.638V68.7H266.078V77H264.638V73.42H260.718V77H259.278ZM268.79 68.7H270.23V74.18L275.91 68.06V77H274.47V71.46L268.79 77.58V68.7ZM278.633 68.7H280.073V72.1L283.433 68.7H285.193L281.593 72.4L285.633 77H283.753L280.513 73.36L280.073 73.78V77H278.633V68.7ZM293.431 69.88V68.7H294.871V77H293.431V75.84C292.711 76.7733 291.764 77.24 290.591 77.24C289.471 77.24 288.518 76.8533 287.731 76.08C286.944 75.3067 286.551 74.2267 286.551 72.84C286.551 71.48 286.938 70.42 287.711 69.66C288.498 68.8867 289.458 68.5 290.591 68.5C291.791 68.5 292.738 68.96 293.431 69.88ZM290.751 69.78C289.991 69.78 289.344 70.0533 288.811 70.6C288.291 71.1333 288.031 71.88 288.031 72.84C288.031 73.76 288.271 74.5133 288.751 75.1C289.244 75.6733 289.911 75.96 290.751 75.96C291.591 75.96 292.258 75.66 292.751 75.06C293.258 74.46 293.511 73.7267 293.511 72.86C293.511 71.8733 293.231 71.1133 292.671 70.58C292.111 70.0467 291.471 69.78 290.751 69.78Z" fill="white"/>
<path d="M113.4 56V53.65C115.167 53.65 116.467 53.1333 117.3 52.1C118.133 51.0667 118.817 49.9167 119.35 48.65C119.417 48.45 119.483 48.25 119.55 48.05C119.65 47.8167 119.75 47.6 119.85 47.4C119.883 47.3333 119.9 47.2667 119.9 47.2C119.933 47.1333 119.967 47.0667 120 47L130.6 21H133.65L145.55 48.8C146.117 50.1333 146.833 51.2833 147.7 52.25C148.6 53.2167 149.817 53.6833 151.35 53.65V56H133.65V53.65H136.15C136.683 53.65 137.133 53.5333 137.5 53.3C137.9 53.0667 138.1 52.7333 138.1 52.3C138.1 52.2 138.083 52.0833 138.05 51.95C138.017 51.7833 137.967 51.6 137.9 51.4C137.9 51.3667 137.883 51.3333 137.85 51.3C137.85 51.2667 137.833 51.2333 137.8 51.2C137.767 51.0333 137.717 50.8833 137.65 50.75C137.617 50.6167 137.583 50.5167 137.55 50.45L136 46.9H122.85L121.9 49.45C121.867 49.5167 121.833 49.6 121.8 49.7C121.8 49.7667 121.783 49.85 121.75 49.95C121.75 50.0167 121.733 50.0833 121.7 50.15C121.7 50.2167 121.683 50.2833 121.65 50.35C121.617 50.55 121.583 50.7333 121.55 50.9C121.517 51.0667 121.5 51.2 121.5 51.3C121.5 52.1667 121.75 52.75 122.25 53.05C122.75 53.35 123.283 53.5333 123.85 53.6C124.05 53.6333 124.25 53.65 124.45 53.65C124.683 53.65 124.883 53.65 125.05 53.65H126.5V56H113.4ZM123.85 44.55H134.95L129.3 31.4H129.25L123.85 44.55ZM153.98 33.2H166.43V35.5H165.93C165.296 35.5 164.846 35.6167 164.58 35.85C164.346 36.0833 164.23 36.4667 164.23 37V48.4H164.38L171.48 36.7V36.55C171.48 36.1167 171.296 35.8333 170.93 35.7C170.596 35.5667 170.213 35.5 169.78 35.5H169.28V33.2H181.73V35.5H179.93C179.296 35.5 178.846 35.6167 178.58 35.85C178.346 36.0833 178.23 36.4667 178.23 37V52.2C178.23 52.7333 178.346 53.1167 178.58 53.35C178.846 53.5833 179.296 53.7 179.93 53.7H181.73V56H169.28V53.7H169.78C170.413 53.7 170.846 53.5833 171.08 53.35C171.346 53.1167 171.48 52.7333 171.48 52.2V41.1H171.38L164.23 52.05V52.2C164.23 52.7333 164.346 53.1167 164.58 53.35C164.846 53.5833 165.296 53.7 165.93 53.7H166.43V56H153.98V53.7H155.78C156.413 53.7 156.846 53.5833 157.08 53.35C157.346 53.1167 157.48 52.7333 157.48 52.2V37C157.48 36.4667 157.346 36.0833 157.08 35.85C156.846 35.6167 156.413 35.5 155.78 35.5H153.98V33.2ZM167.83 29.55C165.863 29.55 164.08 29.1167 162.48 28.25C160.88 27.35 160.08 26.1 160.08 24.5C160.08 23.5 160.346 22.75 160.88 22.25C161.446 21.75 162.163 21.5 163.03 21.5C163.796 21.5 164.396 21.7333 164.83 22.2C165.296 22.6667 165.53 23.25 165.53 23.95C165.53 24.1833 165.496 24.4167 165.43 24.65C165.363 24.8833 165.263 25.1 165.13 25.3C165.096 25.3667 165.046 25.45 164.98 25.55C164.913 25.6167 164.846 25.6833 164.78 25.75C164.68 25.8833 164.58 26.0333 164.48 26.2C164.38 26.3333 164.33 26.4667 164.33 26.6C164.33 26.6667 164.346 26.7667 164.38 26.9C164.413 27 164.513 27.1167 164.68 27.25C164.88 27.4167 165.213 27.5833 165.68 27.75C166.18 27.8833 166.896 27.95 167.83 27.95C168.83 27.95 169.58 27.8667 170.08 27.7C170.58 27.5333 170.913 27.35 171.08 27.15C171.18 27.05 171.246 26.95 171.28 26.85C171.313 26.75 171.33 26.6667 171.33 26.6C171.33 26.4 171.28 26.2333 171.18 26.1C171.113 25.9667 171.03 25.85 170.93 25.75C170.896 25.7167 170.863 25.6833 170.83 25.65C170.796 25.6167 170.763 25.5833 170.73 25.55C170.696 25.4833 170.663 25.4333 170.63 25.4C170.596 25.3667 170.563 25.3333 170.53 25.3C170.396 25.1333 170.296 24.9333 170.23 24.7C170.196 24.4333 170.18 24.1833 170.18 23.95C170.18 23.4167 170.28 22.9833 170.48 22.65C170.713 22.2833 171.046 21.9833 171.48 21.75C171.746 21.6833 171.98 21.6333 172.18 21.6C172.413 21.5333 172.646 21.5 172.88 21.5C173.713 21.5 174.363 21.7833 174.83 22.35C175.33 22.9167 175.58 23.6333 175.58 24.5C175.58 26 174.913 27.1667 173.58 28C172.28 28.8 170.846 29.2833 169.28 29.45C169.046 29.4833 168.796 29.5167 168.53 29.55C168.296 29.55 168.063 29.55 167.83 29.55ZM206.886 21.35H208.136C207.969 23.55 207.436 25.1667 206.536 26.2C205.636 27.2 204.669 27.8833 203.636 28.25C202.969 28.4833 202.319 28.6333 201.686 28.7C201.052 28.7333 200.519 28.75 200.086 28.75C200.086 28.75 200.069 28.75 200.036 28.75C199.869 28.75 199.686 28.75 199.486 28.75C199.319 28.75 199.136 28.75 198.936 28.75C196.369 28.8167 193.969 29.3 191.736 30.2C189.536 31.0667 188.236 33.4667 187.836 37.4H188.136C188.169 37.3333 188.202 37.2833 188.236 37.25C188.302 37.1833 188.336 37.1333 188.336 37.1C188.369 37.1 188.386 37.1 188.386 37.1C188.386 37.1 188.386 37.0833 188.386 37.05C188.419 36.9833 188.469 36.9167 188.536 36.85C188.602 36.75 188.686 36.6167 188.786 36.45C189.686 35.15 190.836 34.15 192.236 33.45C193.669 32.7167 195.202 32.35 196.836 32.35C200.302 32.35 203.136 33.5 205.336 35.8C207.536 38.0667 208.619 40.8833 208.586 44.25C208.552 47.5833 207.502 50.5167 205.436 53.05C203.402 55.55 200.502 56.8 196.736 56.8C196.336 56.8 195.936 56.7833 195.536 56.75C195.169 56.7167 194.786 56.65 194.386 56.55C192.052 56.15 189.919 54.9167 187.986 52.85C186.086 50.75 185.136 47.4167 185.136 42.85C185.136 36.3167 186.286 31.7833 188.586 29.25C190.919 26.6833 193.469 25.0667 196.236 24.4C197.336 24.1333 198.402 23.9667 199.436 23.9C200.502 23.8 201.502 23.7333 202.436 23.7C202.502 23.7 202.569 23.7 202.636 23.7C202.702 23.7 202.752 23.7 202.786 23.7C203.319 23.6667 203.752 23.6333 204.086 23.6C204.452 23.5333 204.802 23.4 205.136 23.2C205.402 23.0333 205.669 22.8 205.936 22.5C206.202 22.2 206.519 21.8167 206.886 21.35ZM196.936 54.5C199.102 54.3667 200.369 53.35 200.736 51.45C201.102 49.5167 201.286 47.2833 201.286 44.75C201.286 44.6833 201.286 44.6333 201.286 44.6C201.286 44.5333 201.286 44.4667 201.286 44.4C201.286 42.8333 201.252 41.6 201.186 40.7C201.119 39.8 201.019 39.0833 200.886 38.55C200.686 37.6167 200.369 36.8833 199.936 36.35C199.536 35.8167 199.119 35.4167 198.686 35.15C198.386 34.9833 198.086 34.8667 197.786 34.8C197.519 34.7333 197.269 34.7 197.036 34.7C195.136 34.7 193.886 35.4833 193.286 37.05C192.719 38.6167 192.436 40.5333 192.436 42.8C192.436 42.9 192.436 43.0167 192.436 43.15C192.436 43.25 192.436 43.3667 192.436 43.5C192.436 43.5667 192.436 43.65 192.436 43.75C192.436 43.8167 192.436 43.8833 192.436 43.95C192.436 46.65 192.602 49.1 192.936 51.3C193.269 53.4667 194.502 54.5333 196.636 54.5C196.702 54.5 196.752 54.5 196.786 54.5C196.852 54.5 196.902 54.5 196.936 54.5ZM211.991 44.6C211.991 41.3333 213.108 38.4833 215.341 36.05C217.574 33.5833 220.408 32.35 223.841 32.35C226.908 32.35 229.641 33.45 232.041 35.65C234.474 37.85 235.691 40.8333 235.691 44.6C235.691 48.3333 234.474 51.3 232.041 53.5C229.641 55.7 226.908 56.8 223.841 56.8C220.841 56.8 218.108 55.7 215.641 53.5C213.208 51.3 211.991 48.3333 211.991 44.6ZM219.291 44.6C219.291 47.2667 219.558 49.5833 220.091 51.55C220.624 53.5167 221.874 54.5 223.841 54.5C225.508 54.5 226.641 53.7833 227.241 52.35C227.841 50.8833 228.191 49.2833 228.291 47.55C228.324 47.05 228.341 46.55 228.341 46.05C228.374 45.55 228.391 45.0667 228.391 44.6C228.391 44.1 228.374 43.5833 228.341 43.05C228.341 42.4833 228.324 41.9167 228.291 41.35C228.158 39.6833 227.774 38.1667 227.141 36.8C226.541 35.4 225.441 34.7 223.841 34.7C221.874 34.7 220.624 35.7 220.091 37.7C219.558 39.7 219.291 42 219.291 44.6ZM243.241 33.2H266.091V35.5H264.291C263.657 35.5 263.207 35.6167 262.941 35.85C262.707 36.0833 262.591 36.4667 262.591 37V52.2C262.591 52.7333 262.707 53.1167 262.941 53.35C263.207 53.5833 263.657 53.7 264.291 53.7H266.091V56H252.341V53.7H254.141C254.774 53.7 255.207 53.5833 255.441 53.35C255.707 53.1167 255.841 52.7333 255.841 52.2V38.35C255.841 37.0167 255.657 36.2 255.291 35.9C254.957 35.5667 254.291 35.4 253.291 35.4C251.957 35.4 251.124 35.7333 250.791 36.4C250.491 37.0333 250.291 38.4333 250.191 40.6C250.157 41.1 250.124 41.65 250.091 42.25C250.057 42.85 250.024 43.5 249.991 44.2C249.791 47.8333 249.374 50.85 248.741 53.25C248.107 55.6167 246.507 56.8 243.941 56.8C242.407 56.8 241.241 56.5 240.441 55.9C239.641 55.3 239.091 54.6333 238.791 53.9C238.691 53.6 238.607 53.3167 238.541 53.05C238.507 52.75 238.491 52.4833 238.491 52.25C238.491 51.0167 238.824 50.05 239.491 49.35C240.191 48.65 241.007 48.3 241.941 48.3C241.974 48.3 241.991 48.3 241.991 48.3C242.024 48.3 242.057 48.3 242.091 48.3C242.791 48.3333 243.424 48.5833 243.991 49.05C244.591 49.5167 244.891 50.2167 244.891 51.15C244.891 51.3167 244.874 51.4833 244.841 51.65C244.807 51.7833 244.757 51.9333 244.691 52.1C244.657 52.1667 244.624 52.2333 244.591 52.3C244.591 52.3333 244.574 52.3833 244.541 52.45C244.474 52.55 244.407 52.6333 244.341 52.7C244.307 52.7667 244.274 52.8167 244.241 52.85C244.241 52.8833 244.224 52.9167 244.191 52.95C244.157 52.9833 244.141 53.0333 244.141 53.1C244.107 53.1667 244.074 53.2333 244.041 53.3C244.007 53.3333 243.991 53.3833 243.991 53.45C243.957 53.5167 243.941 53.5667 243.941 53.6C243.941 53.6333 243.941 53.6667 243.941 53.7C243.941 53.7667 243.974 53.8333 244.041 53.9C244.141 53.9333 244.241 53.9667 244.341 54C244.407 54 244.457 54 244.491 54C244.524 54 244.557 54 244.591 54C245.024 54 245.391 53.85 245.691 53.55C246.024 53.2167 246.274 52.8667 246.441 52.5C246.574 52.2333 246.674 51.9833 246.741 51.75C246.841 51.4833 246.907 51.2833 246.941 51.15C247.107 50.45 247.241 49.65 247.341 48.75C247.474 47.8167 247.574 46.85 247.641 45.85C247.707 44.6167 247.757 43.45 247.791 42.35C247.824 41.2167 247.841 40.3167 247.841 39.65C247.841 39.5833 247.841 39.5167 247.841 39.45C247.841 39.3833 247.841 39.3167 247.841 39.25C247.841 38.3167 247.674 37.4667 247.341 36.7C247.041 35.9 246.241 35.5 244.941 35.5H243.241V33.2ZM269.019 33.2H281.469V35.5H280.969C280.335 35.5 279.885 35.6167 279.619 35.85C279.385 36.0833 279.269 36.4667 279.269 37V48.4H279.419L286.519 36.7V36.55C286.519 36.1167 286.335 35.8333 285.969 35.7C285.635 35.5667 285.252 35.5 284.819 35.5H284.319V33.2H296.769V35.5H294.969C294.335 35.5 293.885 35.6167 293.619 35.85C293.385 36.0833 293.269 36.4667 293.269 37V52.2C293.269 52.7333 293.385 53.1167 293.619 53.35C293.885 53.5833 294.335 53.7 294.969 53.7H296.769V56H284.319V53.7H284.819C285.452 53.7 285.885 53.5833 286.119 53.35C286.385 53.1167 286.519 52.7333 286.519 52.2V41.1H286.419L279.269 52.05V52.2C279.269 52.7333 279.385 53.1167 279.619 53.35C279.885 53.5833 280.335 53.7 280.969 53.7H281.469V56H269.019V53.7H270.819C271.452 53.7 271.885 53.5833 272.119 53.35C272.385 53.1167 272.519 52.7333 272.519 52.2V37C272.519 36.4667 272.385 36.0833 272.119 35.85C271.885 35.6167 271.452 35.5 270.819 35.5H269.019V33.2ZM299.875 33.2H322.225V42.25H320.225C320.191 40.9167 319.825 39.7 319.125 38.6C318.425 37.4667 317.658 36.6167 316.825 36.05C316.525 35.8833 316.225 35.75 315.925 35.65C315.658 35.5167 315.391 35.45 315.125 35.45C315.091 35.45 315.058 35.45 315.025 35.45C314.991 35.45 314.958 35.45 314.925 35.45C314.925 35.45 314.908 35.45 314.875 35.45C314.641 35.45 314.508 35.4833 314.475 35.55C314.441 35.5833 314.425 35.7 314.425 35.9C314.425 35.9 314.425 35.9167 314.425 35.95C314.425 35.95 314.425 35.9667 314.425 36V52.2C314.425 52.7333 314.541 53.1167 314.775 53.35C315.041 53.5833 315.491 53.7 316.125 53.7H317.925V56H304.175V53.7H305.975C306.608 53.7 307.041 53.5833 307.275 53.35C307.541 53.1167 307.675 52.7333 307.675 52.2V36C307.675 35.7667 307.641 35.6167 307.575 35.55C307.541 35.4833 307.441 35.45 307.275 35.45C307.241 35.45 307.191 35.45 307.125 35.45C307.091 35.45 307.041 35.45 306.975 35.45C306.708 35.4833 306.425 35.55 306.125 35.65C305.858 35.75 305.575 35.9 305.275 36.1C304.441 36.6667 303.675 37.5 302.975 38.6C302.275 39.6667 301.908 40.8833 301.875 42.25H299.875V33.2Z" fill="white"/>
<path fill-rule="evenodd" clip-rule="evenodd" d="M45 0C20.1472 0 0 20.1472 0 45C0 69.8528 20.1472 90 45 90C69.8528 90 90 69.8528 90 45C90 20.1472 69.8528 0 45 0ZM13.7923 55.034C14.4142 54.8578 14.0405 53.9923 13.0809 54.5228C12.4168 54.89 11.9212 55.5189 12.0104 56.2871C12.3075 58.8468 14.463 58.8502 16.3281 58.8531C16.4685 58.8533 16.6073 58.8535 16.7436 58.8548C16.6981 59.0838 16.682 59.378 16.6648 59.6931C16.636 60.2172 16.6042 60.799 16.4289 61.2339C16.1146 62.0141 15.5748 62.4095 15.3336 62.5862C15.303 62.6086 15.2772 62.6275 15.2573 62.6432C15.1189 62.7523 14.7973 63.7565 14.6212 64.3064C14.572 64.4601 14.5341 64.5782 14.5148 64.6315C14.4263 64.8757 14.6647 65.978 14.794 66.1593C14.9235 66.3408 15.5161 66.4106 15.5978 66.3339C15.6659 66.2699 15.6725 66.2592 15.6295 66.1726L15.5978 66.1105C15.5229 65.964 15.4479 65.8036 15.4071 65.5245C15.3662 65.2455 15.6114 64.3106 15.6864 64.1083C15.7305 63.9892 16.1735 63.8362 16.6528 63.6707C16.9877 63.5551 17.3402 63.4334 17.5868 63.3128C17.9073 63.1562 18.2161 62.9517 18.4362 62.806C18.6277 62.6792 18.7521 62.5968 18.7584 62.6293C18.7721 62.699 18.7175 63.8292 18.6766 64.0804C18.6358 64.3314 19.0854 64.75 19.5213 65.1268C19.7217 65.3 19.8329 65.482 19.9263 65.635C20.036 65.8147 20.1212 65.9542 20.2979 65.992C20.6248 66.0616 21.1016 65.992 21.2924 65.95C21.3664 65.9338 21.426 65.9533 21.4776 65.9702C21.5591 65.9968 21.6206 66.0169 21.6873 65.8802C21.7963 65.657 21.6057 65.4757 21.4422 65.364C21.389 65.3277 21.3099 65.287 21.2203 65.2408C21.0344 65.1452 20.8035 65.0263 20.6656 64.8757C20.6409 64.8487 20.614 64.8198 20.5859 64.7897C20.3816 64.5706 20.1137 64.2834 20.1616 64.1362C20.1812 64.076 20.2606 63.9708 20.3594 63.8399C20.5354 63.6067 20.773 63.292 20.8428 63.006C20.9517 62.5595 21.0063 62.2525 21.0063 62.2525C21.0063 62.2525 21.7568 62.3082 22.4107 62.4756C23.0647 62.6431 24.318 62.6291 24.318 62.6291C24.318 62.6291 24.1272 62.9639 23.9911 63.2151C23.9803 63.2349 23.9684 63.2566 23.9556 63.2798C23.8061 63.5507 23.5397 64.0336 23.6777 64.3034C23.8275 64.5965 24.4815 65.7823 24.8356 65.922C25.096 66.0246 25.3196 65.9989 25.501 65.9782C25.5663 65.9707 25.6262 65.9638 25.6803 65.9638C25.8846 65.9638 26.0073 65.908 25.8982 65.7127C25.8075 65.5499 25.6978 65.5034 25.5927 65.4682L25.5304 65.4475C25.5106 65.4408 25.4904 65.4347 25.4701 65.4286C25.3648 65.3971 25.2561 65.3646 25.1762 65.2243C25.0808 65.0568 24.9991 64.6243 24.9991 64.3593C24.9991 64.1766 25.3287 63.8219 25.6318 63.4957C25.7688 63.3483 25.9003 63.2067 25.9936 63.0894C26.2933 62.7128 26.3887 62.4896 26.3887 62.4896C26.3887 62.4896 26.4841 63.2987 26.5931 63.5918C26.7021 63.8848 27.4105 64.4709 27.8601 64.7918C28.1359 64.9886 28.2681 65.2117 28.3606 65.3676C28.4189 65.4659 28.4614 65.5375 28.514 65.5591C28.6502 65.615 29.0863 65.7057 29.2632 65.6499C29.4404 65.5941 29.5834 65.4825 29.42 65.3011C29.3125 65.1818 29.1756 65.0927 29.0576 65.0159C28.9961 64.9759 28.9398 64.9392 28.8955 64.9034C28.766 64.7987 27.9146 63.5709 27.8329 63.0407C27.7512 62.5104 27.7239 62.1896 27.7921 61.8686C27.8601 61.5477 27.9146 61.464 27.9146 61.464L27.9574 61.4217C28.0788 61.302 28.4274 60.9616 28.589 60.836C28.7866 60.6825 29.8356 60.515 30.0603 60.6476C30.106 60.6745 30.1444 60.7009 30.1789 60.7246C30.3144 60.8177 30.391 60.8704 30.619 60.7593C30.8545 60.6443 31.0624 60.4182 31.1665 60.305C31.1888 60.2807 31.2063 60.2617 31.2183 60.25C31.2569 60.2125 31.2703 60.2051 31.2852 60.197C31.2966 60.1907 31.3089 60.184 31.3342 60.1627C31.392 60.1138 31.4023 60.1034 31.3886 60.0442C31.3843 60.0253 31.3454 59.9528 31.2929 59.8551C31.18 59.6448 31.0044 59.3177 30.9765 59.1582C30.9642 59.0878 30.9606 59.0396 30.9576 59.0011C30.9509 58.9117 30.9481 58.875 30.8505 58.7361C30.7674 58.6177 30.5358 58.4177 30.3648 58.2701C30.2486 58.1698 30.1603 58.0936 30.1658 58.0837L30.1679 58.08C30.1898 58.0411 30.3192 57.812 30.3192 57.7313C30.3192 57.6477 29.7912 57.7873 29.7912 57.7873C29.7912 57.7873 29.8797 57.6687 29.8593 57.5012C29.8389 57.3338 29.7981 57.2396 29.7707 57.2361C29.7435 57.2326 29.3723 57.4942 29.2599 57.6268C29.1474 57.7594 29.0998 57.8116 29.0829 57.8151C29.0811 57.8155 29.07 57.8195 29.0507 57.8265C28.8783 57.8892 28.0572 58.1878 27.5363 58.1815C27.0767 58.176 26.3937 58.0693 25.8453 57.9836C25.703 57.9614 25.5699 57.9406 25.452 57.9233C25.2992 57.901 25.0342 57.8433 24.7021 57.771C23.7903 57.5727 22.3728 57.2643 21.3842 57.2746C20.0355 57.2885 18.7258 57.3422 18.5919 57.4011C17.9201 57.5701 15.2108 57.9264 14.2239 57.6665C12.8487 57.3042 12.4173 55.4235 13.7923 55.034ZM67.2473 60.8769L49.9648 19H41.0851L26.1626 55.3689C26.221 55.3296 26.2839 55.2863 26.3567 55.2361C26.392 55.2117 26.4297 55.1858 26.4703 55.1579C26.5884 55.0768 26.8003 54.9391 27.0496 54.7771C27.6784 54.3684 28.5453 53.805 28.7455 53.6051C29.0251 53.3259 29.5721 52.3821 29.7912 51.6304C30.0104 50.8788 30.5718 49.8354 30.7379 49.5586L30.7555 49.5293C30.9187 49.2578 31.1163 48.9289 31.1254 48.7179C31.1313 48.5802 31.2308 48.3715 31.3462 48.1295C31.4142 47.9869 31.4877 47.8327 31.5508 47.6748C31.6353 47.463 31.697 47.1802 31.7475 46.9481C31.7987 46.7132 31.8386 46.5302 31.8795 46.5252C31.961 46.5155 32.1724 46.9756 32.2812 47.2468C32.3899 47.518 32.6511 48.1048 32.695 48.1932C32.7351 48.2743 32.91 48.319 33.0616 48.3579C33.0754 48.3614 33.0891 48.3649 33.1024 48.3684C33.1794 48.3884 33.3229 48.4609 33.4799 48.5402C33.6476 48.6249 33.8306 48.7173 33.9646 48.762C34.2242 48.8487 34.288 48.9079 34.4025 49.0215C34.4535 49.0719 34.4961 49.1357 34.5417 49.204C34.5988 49.2895 34.6607 49.3821 34.7497 49.4651C34.9098 49.6144 35.3044 49.6969 35.6301 49.7619C35.8028 49.7963 36.0162 49.8782 36.2225 49.9573C36.4055 50.0275 36.5829 50.0955 36.7211 50.1263C37.015 50.1917 36.981 50.289 36.9226 50.4447C36.8642 50.6006 36.6879 50.8842 36.547 51.046C36.5134 51.0847 36.4843 51.1239 36.4546 51.164C36.3599 51.2917 36.2594 51.4273 35.9882 51.5762C35.6789 51.7462 35.4226 51.7536 35.1843 51.7605C35.1483 51.7615 35.1127 51.7626 35.0774 51.7641C34.9759 51.7687 34.862 51.7863 34.7424 51.8047C34.545 51.8352 34.3322 51.868 34.1349 51.8485C33.9119 51.8265 33.7844 51.8424 33.6516 51.859C33.5957 51.866 33.539 51.8731 33.4737 51.8775C33.3095 51.8887 33.2822 51.9287 33.2457 51.9821C33.2333 52.0003 33.2197 52.0202 33.1993 52.0409C33.119 52.1225 32.9464 52.5575 32.9079 53.1987C32.8956 53.4038 32.8754 53.6461 32.8548 53.8933C32.8111 54.4186 32.7655 54.9657 32.7899 55.2246C32.8135 55.4738 32.9265 55.8172 33.0595 56.2213C33.1299 56.435 33.2058 56.6657 33.2771 56.9084C33.4332 57.44 33.4069 57.8852 33.3865 58.2313C33.38 58.3421 33.374 58.4427 33.3749 58.5328C33.378 58.8771 33.2066 59.3366 33.0733 59.694C33.0628 59.7223 33.0525 59.7499 33.0425 59.7768C33.0213 59.8341 32.948 60.023 32.8395 60.3028C32.4101 61.4099 31.429 63.9395 30.9349 65.3661L39.7614 65.3636V63.9345C36.2164 63.8016 34.4437 62.6494 34.4437 60.478C34.4437 59.7246 34.5989 58.9492 34.9091 58.1515L37.302 52.0361H52.8895L56.0802 59.7136C56.2573 60.1345 56.346 60.5888 56.346 61.0763C56.346 62.8488 54.3297 63.8016 50.2971 63.9345V65.3636H72V63.9345H71.734C69.5848 63.9345 68.0893 62.9152 67.2473 60.8769ZM38.3323 49.3773L44.8465 32.5601L51.7928 49.3773H38.3323Z" fill="white"/>
</svg>
